<svg xmlns="http://www.w3.org/2000/svg" width="128" height="128" viewBox="0 0 128 128"><rect width="100%" height="100%" fill="#10069F"/><path fill="#FFFFFF" d="m34.48 60.6-.69.95q-.11.14-.22.23-.11.08-.32.08-.2 0-.39-.12t-.45-.27q-.27-.16-.63-.28-.36-.12-.9-.12-.68 0-1.19.25-.52.25-.86.71-.34.46-.51 1.12-.17.65-.17 1.48 0 .86.19 1.54.18.67.53 1.12.34.46.84.7.49.23 1.11.23.62 0 1-.15.39-.15.65-.33.26-.19.46-.34.19-.15.43-.15.32 0 .47.24l.75.94q-.43.51-.93.85-.51.34-1.05.54-.54.21-1.11.29-.57.09-1.14.09-1 0-1.88-.38-.88-.37-1.54-1.08-.67-.72-1.05-1.75t-.38-2.36q0-1.18.34-2.2.34-1.01 1-1.75.66-.74 1.64-1.16.98-.42 2.25-.42 1.2 0 2.11.39.91.39 1.64 1.11Zm15.13-1.33h1.97l-3.42 10.77h-2.08q-.36 0-.5-.46l-1.93-6.23q-.09-.31-.17-.62-.08-.31-.13-.63l-.14.64q-.08.32-.18.63l-1.96 6.21q-.13.46-.56.46h-1.99l-3.41-10.77h2.06q.29 0 .49.13.2.14.26.35l1.54 5.75q.12.48.21.93.09.45.15.9.12-.45.25-.9l.27-.93 1.79-5.77q.06-.21.25-.35.18-.13.44-.13h1.15q.27 0 .46.13.2.14.26.35l1.73 5.77q.14.48.26.93.12.46.24.91.13-.89.39-1.84l1.58-5.75q.08-.21.26-.35.19-.13.46-.13Zm9.13 7.99v-1.82q-1.12.05-1.89.2-.77.14-1.23.36-.46.22-.66.51-.2.3-.2.64 0 .68.41.98.4.29 1.05.29.8 0 1.38-.29.58-.28 1.14-.87Zm-5.48-5.66-.46-.83q1.86-1.7 4.47-1.7.95 0 1.69.31.75.31 1.26.86.52.55.78 1.32.27.76.27 1.68v6.8H60.1q-.37 0-.57-.11-.2-.11-.32-.45l-.23-.77q-.41.36-.8.64-.38.28-.8.47-.42.19-.9.29-.48.1-1.06.1-.68 0-1.26-.19-.57-.18-.99-.55-.42-.36-.66-.91-.23-.55-.23-1.27 0-.41.14-.81.14-.41.45-.78.31-.36.8-.69.49-.33 1.21-.57.72-.24 1.68-.39.95-.15 2.18-.18v-.63q0-1.09-.46-1.61t-1.33-.52q-.63 0-1.05.15-.41.15-.73.33-.31.19-.57.33-.26.15-.57.15-.28 0-.47-.14-.18-.14-.3-.33Zm13.04.82v4.83q.44.53.96.75.52.22 1.13.22.59 0 1.06-.22.47-.22.8-.67.33-.45.51-1.14t.18-1.62q0-.95-.15-1.6-.15-.66-.44-1.07-.28-.41-.68-.6-.41-.19-.92-.19-.81 0-1.38.35-.57.34-1.07.96Zm-.35-2.68.21 1q.67-.75 1.51-1.21.84-.46 1.97-.46.88 0 1.61.36.73.37 1.26 1.07.53.7.82 1.72.29 1.03.29 2.35 0 1.21-.33 2.24-.32 1.02-.93 1.78-.6.76-1.46 1.18-.85.43-1.91.43-.9 0-1.54-.28-.65-.28-1.15-.77v4.41h-2.59V59.27h1.58q.51 0 .66.47Zm9.77-.47h2.6v10.77h-2.6V59.27Zm2.96-3.14q0 .33-.14.63-.13.29-.36.51-.22.22-.53.35-.3.13-.65.13-.34 0-.64-.13-.29-.13-.51-.35-.23-.22-.36-.51-.13-.3-.13-.63 0-.35.13-.65.13-.31.36-.53.22-.22.51-.35.3-.13.64-.13.35 0 .65.13.31.13.53.35.23.22.36.53.14.3.14.65Zm3.51 3.2-1.37-.24q.16-1.09.61-1.92.45-.82 1.13-1.37.68-.55 1.55-.83.88-.28 1.89-.28 1.05 0 1.89.3.85.3 1.45.83t.92 1.24q.32.72.32 1.55 0 .72-.17 1.27-.16.55-.46.96-.31.41-.76.69-.45.29-1.02.48 1.37.43 2.04 1.31.67.88.67 2.22 0 1.13-.42 2-.42.87-1.13 1.47-.72.59-1.66.89-.94.31-1.99.31-1.14 0-1.99-.26-.85-.27-1.48-.78-.63-.52-1.07-1.26-.44-.75-.76-1.72l1.15-.48q.45-.19.84-.1.39.09.57.43.19.37.42.72.22.36.54.64.31.28.74.45.42.17 1.01.17.66 0 1.16-.21.49-.22.82-.56.33-.35.49-.77.17-.43.17-.86 0-.55-.12-.99-.11-.45-.48-.76-.37-.32-1.06-.5-.68-.18-1.84-.18v-1.84q.96-.01 1.59-.18.63-.17 1-.47.37-.3.52-.72.15-.42.15-.92 0-1.07-.6-1.63-.6-.56-1.6-.56-.46 0-.85.13-.39.14-.7.37-.31.24-.52.55-.21.32-.31.7-.18.48-.47.64-.29.15-.81.07Zm17.72 7.52v-4.83q-.44-.54-.96-.76-.52-.22-1.12-.22-.59 0-1.06.22-.47.22-.81.67-.33.44-.51 1.13t-.18 1.62q0 .95.15 1.61.15.65.44 1.07.28.41.69.6.41.18.91.18.81 0 1.38-.34.57-.33 1.07-.95Zm0-12.41h2.59v15.6h-1.58q-.52 0-.65-.47l-.22-1.04q-.65.74-1.5 1.21-.84.46-1.97.46-.88 0-1.61-.37-.74-.37-1.27-1.07-.53-.69-.82-1.72-.29-1.03-.29-2.36 0-1.19.33-2.22.32-1.03.93-1.79.61-.75 1.46-1.18.85-.42 1.91-.42.91 0 1.55.28t1.14.77v-5.68Z"/></svg>